#!OML:ASF I:\Actors\actors\Patient Classification 2\Patient 1\Session 1\actor1.ASF
:FULLY-SPECIFIED
:DEGREES
176
root -0.622601 18.6209 4.8402 -1.0637 -0.713651 -2.55748
lowerback 6.69835 2.97191 0.538454
upperback 0.541417 3.98341 -0.399228
thorax -3.12439 1.97134 -1.08013
lowerneck -13.0323 -5.28118 -3.62709
upperneck 19.2504 -8.09803 7.34928
head 8.60571 -3.35482 2.14154
rclavicle 4.13472e-014 -4.77083e-015
rhumerus -4.14003 54.503 -83.8149
rradius 90.1214
rwrist -15.3548
rhand -24.2163 -39.1589
rfingers 7.12502
rthumb 2.26846 -69.1266
lclavicle 4.13472e-014 -4.77083e-015
lhumerus -29.6114 -47.2064 92.0682
lradius 81.4267
lwrist -2.41361
lhand -4.75521 -29.3842
lfingers 7.12502
lthumb 21.0286 -0.504339
rfemur 0 0 0
rtibia 0
rfoot 0 0
rtoes 0
lfemur -6.86251 -3.02944 -11.443
ltibia 25.8961
lfoot -20.7736 12.199
ltoes -55.943
177
root -0.628145 18.6209 4.83457 -1.06411 -0.688479 -2.54023
lowerback 6.71314 2.92037 0.534268
upperback 0.60681 3.91182 -0.474976
thorax -3.06146 1.93609 -1.14759
lowerneck -13.1491 -5.26273 -3.51707
upperneck 19.1501 -8.1061 7.43643
head 8.59342 -3.34154 2.14893
rclavicle 9.08446e-014 -1.19271e-015
rhumerus -3.52504 54.8881 -83.0319
rradius 91.1352
rwrist -9.35656
rhand -24.8908 -38.5126
rfingers 7.12502
rthumb 1.617 -68.4863
lclavicle 9.08446e-014 -1.19271e-015
lhumerus -30.2039 -48.4897 91.9742
lradius 82.1343
lwrist -1.87466
lhand -6.898 -29.7217
lfingers 7.12502
lthumb 18.9689 -0.626605
rfemur 0 0 0
rtibia 0
rfoot 0 0
rtoes 0
lfemur -6.87707 -3.12129 -11.4522
ltibia 25.8833
lfoot -20.7862 12.2629
ltoes -55.9461
178
root -0.633745 18.6218 4.83233 -1.01275 -0.722031 -2.48417
lowerback 6.71057 2.89952 0.405559
upperback 0.620599 3.87356 -0.500236
thorax -3.05337 1.91863 -1.09791
lowerneck -13.1125 -5.23783 -3.55745
upperneck 18.9225 -8.08177 7.60355
head 8.5178 -3.32318 2.21513
rclavicle 4.4006e-014 -3.97569e-015
rhumerus -3.15555 54.9016 -82.5318
rradius 92.409
rwrist -4.60634
rhand -25.4165 -36.9242
rfingers 7.12502
rthumb 1.10929 -66.9011
lclavicle 4.4006e-014 -3.97569e-015
lhumerus -30.7848 -49.222 92.0369
lradius 83.1114
lwrist -0.793375
lhand -7.67748 -30.0327
lfingers 7.12502
lthumb 18.2191 -0.8659
rfemur 0 0 0
rtibia 0
rfoot 0 0
rtoes 0
lfemur -6.91465 -3.16959 -11.4986
ltibia 25.8504
lfoot -20.8271 12.3049
ltoes -55.8805
179
root -0.638729 18.624 4.83238 -0.922198 -0.744283 -2.42639
lowerback 6.68615 2.88071 0.199221
upperback 0.581316 3.83469 -0.452744
thorax -3.09788 1.90174 -0.930974
lowerneck -12.9319 -5.21477 -3.69705
upperneck 18.6666 -8.0241 7.70628
head 8.40526 -3.30713 2.28308
rclavicle 1.46604e-014 -3.97569e-015
rhumerus -3.14003 54.6641 -82.378
rradius 93.9327
rwrist -2.09761
rhand -25.9352 -34.5523
rfingers 7.12502
rthumb 0.608376 -64.5311
lclavicle 1.46604e-014 -3.97569e-015
lhumerus -31.34 -49.5227 92.2449
lradius 84.0626
lwrist 0.0391942
lhand -7.79245 -30.221
lfingers 7.12502
lthumb 18.1085 -1.04395
rfemur 0 0 0
rtibia 0
rfoot 0 0
rtoes 0
lfemur -6.98014 -3.15616 -11.5417
ltibia 25.7976
lfoot -20.8318 12.3122
ltoes -55.8339
180
root -0.643596 18.6269 4.83404 -0.788333 -0.768675 -2.42323
lowerback 6.61531 2.87027 0.108388
upperback 0.49788 3.81524 -0.421563
thorax -3.15286 1.89299 -0.84564
lowerneck -12.7635 -5.19534 -3.73943
upperneck 18.5815 -7.96865 7.63422
head 8.34074 -3.29764 2.27622
rclavicle -6.95249e-014 3.97569e-015
rhumerus -3.25126 54.3228 -82.5302
rradius 95.4567
rwrist -1.30459
rhand -26.4041 -32.363
rfingers 7.12502
rthumb 0.155458 -62.3427
lclavicle -6.95249e-014 3.97569e-015
lhumerus -32.0353 -49.6305 92.4414
lradius 85.0002
lwrist 0.650784
lhand -7.73706 -30.3156
lfingers 7.12502
lthumb 18.1618 -1.14348
rfemur 0 0 0
rtibia 0
rfoot 0 0
rtoes 0
lfemur -7.08013 -3.10786 -11.5192
ltibia 25.734
lfoot -20.8224 12.3441
ltoes -55.8852
181
root -0.648535 18.6307 4.83619 -0.665026 -0.784133 -2.43477
lowerback 6.59949 2.87207 0.150175
upperback 0.372206 3.81964 -0.456699
thorax -3.26871 1.89347 -0.908922
lowerneck -12.6367 -5.18291 -3.72066
upperneck 18.6536 -7.94187 7.53382
head 8.33473 -3.29508 2.24577
rclavicle 2.44754e-014 -5.56597e-015
rhumerus -3.36607 53.9827 -82.899
rradius 96.8052
rwrist -1.40217
rhand -27.234 -30.7084
rfingers 7.12502
rthumb -0.646124 -60.6872
lclavicle 2.44754e-014 -5.56597e-015
lhumerus -32.7601 -49.8116 92.5513
lradius 85.8364
lwrist 0.978074
lhand -7.99569 -30.3108
lfingers 7.12502
lthumb 17.913 -1.11576
rfemur 0 0 0
rtibia 0
rfoot 0 0
rtoes 0
lfemur -7.17383 -3.09565 -11.4819
ltibia 25.6765
lfoot -20.8003 12.3872
ltoes -55.9402
182
root -0.652487 18.6337 4.83704 -0.596344 -0.761885 -2.46525
lowerback 6.52187 2.87957 0.137196
upperback 0.33358 3.83103 -0.393079
thorax -3.27028 1.89974 -0.834355
lowerneck -12.5937 -5.18328 -3.84691
upperneck 18.7522 -7.90633 7.45169
head 8.3589 -3.29389 2.24443
rclavicle -2.11209e-014 1.27222e-014
rhumerus -3.24877 53.7565 -82.9189
rradius 98.0065
rwrist -1.97519
rhand -28.4644 -29.5363
rfingers 7.12502
rthumb -1.83439 -59.5082
lclavicle -2.11209e-014 1.27222e-014
lhumerus -32.9824 -50.1221 92.5855
lradius 86.3665
lwrist 1.04416
lhand -8.52808 -30.0893
lfingers 7.12502
lthumb 17.4007 -0.848152
rfemur 0 0 0
rtibia 0
rfoot 0 0
rtoes 0
lfemur -7.22889 -3.12636 -11.4315
ltibia 25.6268
lfoot -20.7383 12.4148
ltoes -55.9712
183
root -0.656115 18.6357 4.83709 -0.544649 -0.729713 -2.54172
lowerback 6.45547 2.89126 0.128219
upperback 0.294224 3.85012 -0.276304
thorax -3.28223 1.91009 -0.708812
lowerneck -12.5849 -5.19231 -3.98427
upperneck 18.9095 -7.87418 7.32365
head 8.40769 -3.29747 2.22846
rclavicle 3.23274e-014 -2.78299e-015
rhumerus -3.17504 53.5769 -82.8048
rradius 99.0459
rwrist -2.48871
rhand -29.7207 -28.5965
rfingers 7.12502
rthumb -3.04771 -58.5544
lclavicle 3.23274e-014 -2.78299e-015
lhumerus -32.9014 -50.5135 92.6057
lradius 86.7012
lwrist 1.09075
lhand -8.73104 -29.5949
lfingers 7.12502
lthumb 17.2053 -0.336565
rfemur 0 0 0
rtibia 0
rfoot 0 0
rtoes 0
lfemur -7.26849 -3.22508 -11.3337
ltibia 25.5846
lfoot -20.7545 12.4316
ltoes -55.9267
